<svg xmlns="http://www.w3.org/2000/svg" viewBox="0 0 234.94 234.94"><defs><style>.cls-1{fill:#fff;}.cls-2{fill:#b2d235;}</style></defs><g id="Layer_2" data-name="Layer 2"><g id="Layer_1-2" data-name="Layer 1"><rect class="cls-1" x="5.85" y="5.85" width="223.24" height="223.24" rx="12.57"/><rect class="cls-2" x="5.85" y="5.85" width="223.24" height="223.24" rx="12.57"/><path d="M216.52,234.94H18.42A18.44,18.44,0,0,1,0,216.52V18.42A18.44,18.44,0,0,1,18.42,0h198.1a18.44,18.44,0,0,1,18.42,18.42v198.1A18.44,18.44,0,0,1,216.52,234.94ZM18.42,11.7a6.73,6.73,0,0,0-6.72,6.72v198.1a6.72,6.72,0,0,0,6.72,6.72h198.1a6.72,6.72,0,0,0,6.72-6.72V18.42a6.73,6.73,0,0,0-6.72-6.72Z"/><path d="M55.79,166.46H75.52v3.9H60.32v10.48H74.58v3.86H60.32v14.86H55.79Z"/><path d="M79.79,199.56v-35h4.46v35Z"/><path d="M111.29,187c0,7.08-3.16,13-11.07,13s-10.78-6.22-10.78-12.91c0-6.36,3.51-12.43,11.09-12.43C107.63,174.64,111.29,180,111.29,187ZM94,187c0,5.55,2.2,9.32,6.43,9.32s6.24-3.69,6.24-9.35c0-5.22-2.1-8.67-6.38-8.67C96.2,178.3,94,181.85,94,187Z"/><path d="M118.57,175.12c2.66,10.49,4.23,16.68,4.82,19.82h.07c.6-2.9,2-7.88,5.2-19.82h4.24c3,11.15,4.55,16.95,4.94,19.65h0c.51-2.65,1.83-7.43,5.06-19.65h4.5L140,199.56h-4.62c-2.07-7.92-4.11-15.15-4.8-18.81h-.05c-.65,3.62-2.79,11-5.08,18.81h-4.72l-7-24.44Z"/><path d="M154.14,188.24c0,4.52,1.88,8.11,6.06,8.11a5.25,5.25,0,0,0,5.33-3.81h4.39C169,195.78,166.57,200,160,200c-7.68,0-10.4-5.88-10.4-12.73,0-6,3-12.64,10.64-12.64s10,6,10,11.71c0,.18,0,1.69,0,1.89Zm11.75-3.18c-.12-3.88-1.68-6.87-5.74-6.87-4.61,0-5.71,4.1-5.91,6.87Z"/><path d="M175.45,183.41c0-3.92,0-7-.1-8.29h4.38c.09,1.13.11,2.69.11,4.82a8.06,8.06,0,0,1,7.81-5.26v4.61c-5.41.15-7.74,3.08-7.74,8.42v11.85h-4.46Z"/><path d="M51.12,53.89h65.11V66.42H65.66V97.27h47.39V109.8H65.66v43.79H51.12Z"/><path d="M133.08,81h14.8v60.09l34.86.34-.15,12.18H133.08Z"/></g></g></svg>