<svg xmlns="http://www.w3.org/2000/svg" viewBox="0 0 234.94 234.94"><defs><style>.cls-1{fill:#ffc60b;}</style></defs><g id="Layer_2" data-name="Layer 2"><g id="Layer_1-2" data-name="Layer 1"><rect class="cls-1" x="1.85" y="5.85" width="223.24" height="223.24" rx="12.57"/><path d="M216.52,234.94H18.42A18.44,18.44,0,0,1,0,216.52V18.42A18.44,18.44,0,0,1,18.42,0h198.1a18.44,18.44,0,0,1,18.42,18.42v198.1A18.44,18.44,0,0,1,216.52,234.94ZM18.42,11.7a6.73,6.73,0,0,0-6.72,6.72v198.1a6.72,6.72,0,0,0,6.72,6.72h198.1a6.72,6.72,0,0,0,6.72-6.72V18.42a6.73,6.73,0,0,0-6.72-6.72Z"/><path d="M36.77,198.2l-8.83-26.81h4l4.09,13c1.15,3.69,2.43,7.75,3,10.21h.08c.55-2.22,2-6.46,3.17-10.16l4.25-13.05h3.86L41.24,198.2Z"/><path d="M65.45,193.66a37.28,37.28,0,0,0,.29,4.54H62.49a16.06,16.06,0,0,1-.29-2.93c-.77,1.91-2.75,3.28-5.9,3.28-4.85,0-6.38-3.22-6.38-6,0-3.09,2-6.32,9.07-6.32h2.9v-1.83c0-1.83-.53-3.64-3.68-3.64-2.77,0-3.68,1.3-4,3.34H50.7C51,180.8,52.88,178,58.3,178c4.25,0,7.15,1.66,7.15,6.24ZM62,188.74H59c-4.55,0-5.4,1.85-5.4,3.56a3.16,3.16,0,0,0,3.49,3.33c3.73,0,4.91-2.51,4.91-6.48Z"/><path d="M74.57,195.94V206H71V184.21c0-2.7,0-4.57-.06-5.81h3.54c.06.67.1,2,.12,3.08.91-1.9,2.8-3.47,6.07-3.47,4.27,0,7.41,3.36,7.41,10s-3.57,10.52-8.23,10.52C77,198.52,75.39,197.43,74.57,195.94Zm9.77-7.84c0-4.67-1.87-7-4.89-7-3.88,0-5,2.59-5,7.27,0,4.26.85,7.12,4.85,7.12C82.47,195.48,84.34,192.85,84.34,188.1Z"/><path d="M94.69,189c0,3.66,1.52,6.57,4.91,6.57a4.24,4.24,0,0,0,4.31-3.09h3.56a7.71,7.71,0,0,1-8,6.06c-6.22,0-8.42-4.77-8.42-10.32,0-4.87,2.4-10.24,8.61-10.24s8.14,4.82,8.14,9.49c0,.14,0,1.37,0,1.53Zm9.51-2.57c-.1-3.15-1.36-5.57-4.65-5.57-3.73,0-4.62,3.32-4.78,5.57Z"/><path d="M141.49,190.27c-.78,4.32-3.62,8.31-10,8.31-8,0-11-6-11-13.94,0-7.16,3.5-13.62,11.14-13.62,6.37,0,9.24,3.91,9.71,8.36h-3.72c-.65-3-2.18-5.25-6.12-5.25-5.13,0-7.15,5-7.15,10.51s1.66,10.85,7.19,10.85c3.9,0,5.45-2.38,6.22-5.22Z"/><path d="M160.16,193.66a37.28,37.28,0,0,0,.29,4.54H157.2a16.06,16.06,0,0,1-.29-2.93c-.77,1.91-2.75,3.28-5.9,3.28-4.85,0-6.38-3.22-6.38-6,0-3.09,2-6.32,9.07-6.32h2.9v-1.83c0-1.83-.53-3.64-3.69-3.64-2.76,0-3.67,1.3-4,3.34h-3.52c.28-3.28,2.18-6.07,7.6-6.07,4.25,0,7.15,1.66,7.15,6.24Zm-3.45-4.92h-3c-4.55,0-5.41,1.85-5.41,3.56a3.16,3.16,0,0,0,3.5,3.33c3.73,0,4.91-2.51,4.91-6.48Z"/><path d="M165.68,185.12c0-3.18,0-5.67-.08-6.72h3.54c.08.92.1,2.18.1,3.91a6.52,6.52,0,0,1,6.32-4.26v3.73c-4.38.12-6.27,2.5-6.27,6.82v9.6h-3.61Z"/><path d="M177.56,178.4h3.1v-5.68h3.59v5.68h3.9v2.93h-3.9v11.95c0,1.6.4,2.27,2.07,2.27a8.49,8.49,0,0,0,1.47-.12v2.66a9.45,9.45,0,0,1-2.71.34c-3.06,0-4.42-1.18-4.42-4.54V181.33h-3.1Z"/><path d="M193.54,192.41a3.9,3.9,0,0,0,4.24,3.37c2.57,0,3.62-1.31,3.62-2.91s-1.23-2.55-4.52-3.45c-4.91-1.34-6.18-3.12-6.18-5.8s1.75-5.61,6.82-5.61c4.86,0,6.79,2.66,7,5.76H201a3.31,3.31,0,0,0-3.68-3c-2.07,0-3.06,1-3.06,2.53,0,1.39.75,2.14,4,3,5.11,1.36,6.72,3.12,6.72,6.26,0,3.75-3,6-7.34,6s-7.31-2-7.69-6.14Z"/><path d="M72.77,132.25,40.26,42.42H54.58L69.93,86.58c4.52,13.07,8.86,25.84,10.86,34.24H81C82.92,113.27,87.72,100,92.35,87l16-44.56h13.71L88.51,132.25Z"/><path d="M138.73,124.56V158H126.09V82.43c0-5.36,0-10.87-.13-16h12.33a96.34,96.34,0,0,1,.44,9.93c3.42-6.29,10-11.48,21.06-11.48,15.14,0,26.27,12.68,26.27,32.79,0,23.45-12.71,36.15-28.65,36.15C147,133.8,141.61,129.52,138.73,124.56ZM173,98.14c0-13.59-6.07-22.61-16.82-22.61-13,0-18.05,8.24-18.05,23.71,0,15,4.22,24,17.21,24C167,123.25,173,113.81,173,98.14Z"/></g></g></svg>