<svg xmlns="http://www.w3.org/2000/svg" viewBox="0 0 234.94 234.94"><defs><style>.cls-1{fill:#fff;}.cls-2{fill:#00aeef;}</style></defs><g id="Layer_2" data-name="Layer 2"><g id="Layer_1-2" data-name="Layer 1"><rect class="cls-1" x="1.85" y="5.85" width="223.24" height="223.24" rx="12.57"/><rect class="cls-2" x="1.85" y="5.85" width="223.24" height="223.24" rx="12.57"/><path d="M216.52,234.94H18.42A18.44,18.44,0,0,1,0,216.52V18.42A18.44,18.44,0,0,1,18.42,0h198.1a18.44,18.44,0,0,1,18.42,18.42v198.1A18.44,18.44,0,0,1,216.52,234.94ZM18.42,11.7a6.73,6.73,0,0,0-6.72,6.72v198.1a6.72,6.72,0,0,0,6.72,6.72h198.1a6.72,6.72,0,0,0,6.72-6.72V18.42a6.73,6.73,0,0,0-6.72-6.72Z"/><path d="M44.76,160.83H56.07c6.17,0,10.9,3.2,10.9,9.3,0,6.58-4.67,9.84-11.45,9.84H49.38v14H44.76Zm4.62,15.36h5.93c4.16,0,6.94-1.45,6.94-6,0-3.88-2.79-5.63-6.86-5.63h-6Z"/><path d="M71.4,177.78c0-3.92,0-7-.1-8.29h4.38c.09,1.13.11,2.69.11,4.83a8.07,8.07,0,0,1,7.81-5.27v4.62c-5.41.14-7.74,3.08-7.74,8.41v11.85H71.4Z"/><path d="M90.31,182.61c0,4.52,1.88,8.11,6.06,8.11a5.25,5.25,0,0,0,5.33-3.81h4.39c-.88,3.24-3.35,7.48-9.91,7.48-7.68,0-10.4-5.89-10.4-12.74,0-6,3-12.64,10.64-12.64s10,6,10,11.72c0,.17,0,1.68,0,1.88Zm11.75-3.18c-.12-3.88-1.68-6.87-5.74-6.87-4.61,0-5.71,4.1-5.91,6.87Z"/><path d="M122.59,179.64v3.91H110.78v-3.91Z"/><path d="M132.45,179.13v14.8h-4.56v-33.1h12c5.92,0,10.1,2.94,10.1,8.61,0,4.73-2.76,6.87-5.38,7.73,3.42,1.14,4.84,3.84,4.84,8.27v.65a46.9,46.9,0,0,0,.46,7.84h-4.52c-.46-1.34-.57-4.25-.57-7.82v-.71c0-4.52-1.64-6.27-6.88-6.27Zm0-3.77h5.91c4.11,0,7-1.16,7-5.61,0-3.46-2.35-5.15-6.06-5.15h-6.87Z"/><path d="M176.29,181.32c0,7.09-3.16,13-11.07,13s-10.77-6.23-10.77-12.92c0-6.36,3.5-12.43,11.08-12.43C172.64,169,176.29,174.36,176.29,181.32Zm-17.26.06c0,5.54,2.2,9.31,6.43,9.31s6.25-3.69,6.25-9.35c0-5.21-2.11-8.67-6.39-8.67C161.2,172.67,159,176.22,159,181.38Z"/><path d="M181.51,193.93V159H186v35Z"/><path d="M192.79,193.93V159h4.46v35Z"/><path d="M54.23,51.26h38.5c19.74,0,33.22,11.05,33.22,29.37,0,19.85-14.45,30.08-34,30.08H69.1V151H54.23ZM69.1,98.44H90.94c13,0,19.83-6.13,19.83-17.46,0-11.8-8.11-17.45-19.32-17.45H69.1Z"/><path d="M140.08,97.74c0-9.65-.08-15.53-.14-19.85h13.82c.21,2,.41,8,.41,14.51,3.71-9.59,12.25-15.92,24.39-16.24V90.05c-14.92.29-24.39,7.36-24.39,26.14V151H140.08Z"/></g></g></svg>