<svg xmlns="http://www.w3.org/2000/svg" viewBox="0 0 234.94 234.94"><defs><style>.cls-1{fill:#fff;}.cls-2{fill:#00aaad;}</style></defs><g id="Layer_2" data-name="Layer 2"><g id="Layer_1-2" data-name="Layer 1"><rect class="cls-1" x="5.85" y="5.85" width="223.24" height="223.24" rx="12.57"/><rect class="cls-2" x="5.85" y="5.85" width="223.24" height="223.24" rx="12.57"/><path d="M216.52,234.94H18.42A18.44,18.44,0,0,1,0,216.52V18.42A18.44,18.44,0,0,1,18.42,0h198.1a18.44,18.44,0,0,1,18.42,18.42v198.1A18.44,18.44,0,0,1,216.52,234.94ZM18.42,11.7a6.73,6.73,0,0,0-6.72,6.72v198.1a6.72,6.72,0,0,0,6.72,6.72h198.1a6.72,6.72,0,0,0,6.72-6.72V18.42a6.73,6.73,0,0,0-6.72-6.72Z"/><path d="M80,186.32H65.2v11.49H81.47l-.6,3.88H60.68V168.6h20v3.9H65.2v9.89H80Z"/><path d="M105.88,166.74v28.5c0,2.45,0,5,.09,6.45H101.6c-.07-.64-.16-2.16-.16-3.46-1.26,2.69-3.21,3.92-7.2,3.92-6.31,0-9.47-5.3-9.47-12.63,0-7.11,3.72-12.75,10.33-12.75,3.89,0,5.68,1.52,6.32,2.8V166.74Zm-16.5,22.59c0,5.68,2.36,9,6.13,9,5.06,0,6.09-3.76,6.09-9.31,0-6.49-1.79-8.49-5.84-8.49C91.87,180.57,89.38,183.69,89.38,189.33Z"/><path d="M112.81,166.74h4.46v5.33h-4.46Zm0,10.51h4.46v24.44h-4.46Z"/><path d="M124.07,166.74h4.45v13.77c1.06-1.89,3.25-3.74,7.22-3.74,6,0,9.39,5,9.39,11.94,0,7.51-3.21,13.41-10.17,13.41-3.71,0-5.58-1.59-6.48-3.39,0,1-.07,2-.16,3H124c0-1.41.1-4.12.1-7Zm16.5,22.15c0-4.94-1.95-8.29-6-8.29-4.64,0-6.27,3-6.27,8.6,0,5.78,1.35,9.15,6.16,9.15C138.64,198.35,140.57,194.48,140.57,188.89Z"/><path d="M150.35,201.69V166.74h4.46v34.95Z"/><path d="M164.56,190.37c0,4.53,1.88,8.12,6.06,8.12a5.25,5.25,0,0,0,5.32-3.81h4.4c-.88,3.24-3.36,7.47-9.92,7.47-7.67,0-10.39-5.88-10.39-12.73,0-6,3-12.65,10.63-12.65s10,6,10,11.72c0,.18,0,1.69,0,1.88Zm11.74-3.17c-.12-3.88-1.68-6.87-5.74-6.87-4.6,0-5.7,4.1-5.91,6.87Z"/><path d="M108.15,108.31H58.92v33.4H113l-1.87,12.53H44.45V54.53h66V67.06H58.92V95.79h49.23Z"/><path d="M190,49V133.7c0,6.82,0,13.55.14,20.54H176.61a97.2,97.2,0,0,1-.7-9.84c-3.58,7.25-10.77,11.56-22.55,11.56-18.72,0-30.31-15.15-30.31-37.53s12.46-39,32.77-39c12.46,0,18.2,4.94,20.09,8.88V49ZM137.64,118c0,17,7.84,26.18,19,26.18,16.47,0,19.81-12.41,19.81-27.37,0-15.52-3.08-25.62-18.91-25.62C145.1,91.2,137.64,101,137.64,118Z"/></g></g></svg>