<svg xmlns="http://www.w3.org/2000/svg" viewBox="0 0 234.94 234.94"><defs><style>.cls-1{fill:#fff;}.cls-2{fill:#f2ab00;opacity:0.49;}</style></defs><g id="Layer_2" data-name="Layer 2"><g id="Layer_1-2" data-name="Layer 1"><rect class="cls-1" x="5.85" y="5.85" width="223.24" height="223.24" rx="12.57"/><rect class="cls-2" x="5.85" y="5.85" width="223.24" height="223.24" rx="12.57"/><path d="M216.52,234.94H18.42A18.44,18.44,0,0,1,0,216.52V18.42A18.44,18.44,0,0,1,18.42,0h198.1a18.44,18.44,0,0,1,18.42,18.42v198.1A18.44,18.44,0,0,1,216.52,234.94ZM18.42,11.7a6.73,6.73,0,0,0-6.72,6.72v198.1a6.72,6.72,0,0,0,6.72,6.72h198.1a6.72,6.72,0,0,0,6.72-6.72V18.42a6.73,6.73,0,0,0-6.72-6.72Z"/><path d="M68.16,184.18H53.38v11.49H69.65l-.6,3.89H48.86v-33.1h20v3.9H53.38v9.89H68.16Z"/><path d="M77.93,175.12c3,5.16,4.51,7.57,5.24,9h0c.94-1.61,2.86-4.65,5.49-9H93.5l-7.74,11.66,7.78,12.78H88.42c-2.62-4.61-4.55-7.81-5.4-9.36h0c-.69,1.32-2.75,5-5.38,9.36H72.72l7.64-12.1-7.43-12.34Z"/><path d="M95.25,175.12h3.83v-7h4.44v7h4.81v3.61h-4.81v14.76c0,2,.49,2.8,2.55,2.8a10.39,10.39,0,0,0,1.82-.15v3.28a11.57,11.57,0,0,1-3.34.43c-3.78,0-5.47-1.46-5.47-5.61V178.73H95.25Z"/><path d="M112.22,183.41c0-3.92,0-7-.09-8.29h4.37c.09,1.13.11,2.69.11,4.82a8.06,8.06,0,0,1,7.81-5.26v4.61c-5.41.15-7.74,3.08-7.74,8.42v11.85h-4.46Z"/><path d="M145.34,194a45.85,45.85,0,0,0,.36,5.6h-4a22.94,22.94,0,0,1-.36-3.62c-.95,2.36-3.38,4.05-7.28,4.05-6,0-7.87-4-7.87-7.43,0-3.81,2.5-7.81,11.2-7.81h3.57V182.5c0-2.26-.65-4.49-4.54-4.49-3.42,0-4.55,1.6-4.92,4.12h-4.35c.34-4,2.69-7.49,9.39-7.49,5.24,0,8.82,2,8.82,7.7Zm-4.26-6.08h-3.7c-5.62,0-6.67,2.28-6.67,4.4s1.35,4.11,4.31,4.11c4.61,0,6.06-3.11,6.06-8Z"/><path d="M171,191.62c-.94,4.8-4,8.39-10,8.39-7,0-10.46-4.57-10.46-12.7,0-7.18,3.69-12.67,10.73-12.67,6.8,0,9.38,4.73,9.69,8.64h-4.49c-.43-2.66-1.86-5.05-5.29-5.05-4.24,0-6.06,3.74-6.06,9,0,6.16,2.15,9.24,6,9.24,3.27,0,4.61-2,5.41-4.82Z"/><path d="M173.49,175.12h3.83v-7h4.44v7h4.81v3.61h-4.81v14.76c0,2,.48,2.8,2.55,2.8a10.19,10.19,0,0,0,1.81-.15v3.28a11.46,11.46,0,0,1-3.33.43c-3.78,0-5.47-1.46-5.47-5.61V178.73h-3.83Z"/><path d="M111.72,101.65H57.1v37.06h60l-2.07,13.89h-74V42H114.3v13.9H57.1V87.75h54.62Z"/><path d="M145.83,71.52C156.66,89,161.24,96.4,164.06,100.88h.16C167.54,95.69,174,85.45,183,71.52h17.47l-27.21,38.91,27.4,42.17h-18c-9.37-15.45-15.77-26-18.87-31.1h-.16c-2.59,4.48-9,15.23-18.77,31.1H127.56l26.81-40.31L128.25,71.52Z"/></g></g></svg>